Coordinates
version=1
nRows=11
nColumns=46
inDegrees=yes

Units are S.I. units (second, meters, Newtons, ...)
Angles are in degrees.

endheader
time	pelvis_tilt	pelvis_list	pelvis_rotation	pelvis_tx	pelvis_ty	pelvis_tz	bb_angle	bb_tx	bb_ty	bb_tz	hip_flexion_r	hip_adduction_r	hip_rotation_r	knee_angle_r	knee_angle_r_beta	ankle_angle_r	subtalar_angle_r	mtp_angle_r	crank_angle_r	hip_flexion_l	hip_adduction_l	hip_rotation_l	knee_angle_l	knee_angle_l_beta	ankle_angle_l	subtalar_angle_l	mtp_angle_l	crank_angle_l	lumbar_extension	lumbar_bending	lumbar_rotation	arm_flex_r	arm_add_r	arm_rot_r	elbow_flex_r	pro_sup_r	wrist_flex_r	wrist_dev_r	arm_flex_l	arm_add_l	arm_rot_l	elbow_flex_l	pro_sup_l	wrist_flex_l	wrist_dev_l
      5.00500000	    -13.84782406	      0.07996569	     -4.47487657	      0.20356198	      1.04592617	     -0.30893256	      0.00000000	      0.50000000	      0.00000000	      0.25000000	     67.27295907	     -2.24227079	      1.54769501	     63.57565470	      1.10960450	      2.38282420	     -6.20015028	      0.00000000	      0.00000000	     64.72267643	     -8.53992832	      4.82007239	     99.70706241	      1.74021653	    -11.20512411	     -3.88609018	      0.00000000	      0.00000000	    -67.20765769	     -2.62786568	      1.04400977	     89.51156709	    -13.05865361	     29.76057898	     59.90488774	     29.68239846	      0.00000000	      0.00000000	     85.24828552	    -15.70615039	     23.48001230	     63.95245875	     41.64892970	      0.00000000	      0.00000000
      5.01000000	    -13.67497024	      0.43126749	     -4.24094829	      0.20457812	      1.04479124	     -0.30873235	      0.00000000	      0.50000000	      0.00000000	      0.25000000	     65.89103854	     -2.70540763	      1.68351989	     61.90068891	      1.08037083	      1.21282958	     -5.70272370	      0.00000000	      0.00000000	     65.88619623	     -8.26553157	      4.79051594	    101.90729718	      1.77861787	    -10.52754913	     -3.99926252	      0.00000000	      0.00000000	    -67.40296006	     -2.84297311	      0.61068746	     89.50738479	    -13.32824237	     29.74424685	     59.94526825	     29.70894492	      0.00000000	      0.00000000	     85.42161793	    -15.63887624	     23.59220016	     64.07861190	     41.68430597	      0.00000000	      0.00000000
      5.01500000	    -13.29746621	      0.32137386	     -3.86467062	      0.20552591	      1.04457647	     -0.30871891	      0.00000000	      0.50000000	      0.00000000	      0.25000000	     64.01780079	     -3.03211945	      1.30872118	     59.93799885	      1.04611543	     -0.44944198	     -5.84803311	      0.00000000	      0.00000000	     66.88080045	     -8.13817346	      5.30417725	    104.04152292	      1.81586713	     -9.31319832	     -3.41383147	      0.00000000	      0.00000000	    -67.93793523	     -2.70442239	      0.80970933	     89.52730830	    -14.12870643	     29.94881255	     60.42178523	     29.85280725	      0.00000000	      0.00000000	     85.90016335	    -15.61713378	     24.41323883	     64.63270697	     41.87060850	      0.00000000	      0.00000000
      5.02000000	    -13.29068561	      0.77502536	     -3.59276193	      0.20662204	      1.04421642	     -0.30869390	      0.00000000	      0.50000000	      0.00000000	      0.25000000	     62.67851841	     -3.60112646	      1.52158209	     58.13547932	      1.01465553	     -1.77038175	     -5.19122701	      0.00000000	      0.00000000	     68.12954920	     -7.73459072	      5.18067647	    105.94156173	      1.84902907	     -8.51094897	     -3.61159682	      0.00000000	      0.00000000	    -68.02496036	     -2.91960331	      0.31619841	     89.51358052	    -14.45640050	     29.93318973	     60.52919308	     29.88524451	      0.00000000	      0.00000000	     86.04494404	    -15.51389561	     24.62252229	     64.76366651	     41.91553314	      0.00000000	      0.00000000
      5.02500000	    -13.22818484	      1.11737898	     -3.23011667	      0.20763677	      1.04428099	     -0.30865474	      0.00000000	      0.50000000	      0.00000000	      0.25000000	     61.22458818	     -4.14413390	      1.68199214	     56.33859028	      0.98329390	     -3.18527324	     -4.57502983	      0.00000000	      0.00000000	     69.36121181	     -7.33810750	      5.18257111	    107.74760522	      1.88055047	     -7.66624528	     -3.68499276	      0.00000000	      0.00000000	    -68.20853201	     -3.01835083	     -0.11548810	     89.49954833	    -14.76337659	     29.91399715	     60.61109852	     29.92772130	      0.00000000	      0.00000000	     86.18643892	    -15.37282782	     24.81842152	     64.96981410	     41.97230856	      0.00000000	      0.00000000
      5.03000000	    -12.95323463	      1.17500356	     -2.76132215	      0.20851156	      1.04514063	     -0.30869435	      0.00000000	      0.50000000	      0.00000000	      0.25000000	     59.37823889	     -4.59391913	      1.48738408	     54.38072046	      0.94912262	     -4.82099682	     -4.43174257	      0.00000000	      0.00000000	     70.39323885	     -6.98129704	      5.56407861	    109.44319503	      1.91014410	     -6.62400705	     -3.17998566	      0.00000000	      0.00000000	    -68.69320278	     -2.93159705	     -0.26265135	     89.50845058	    -15.32910142	     30.10589140	     60.89772054	     30.03983645	      0.00000000	      0.00000000	     86.45120926	    -15.27756775	     25.40727896	     65.44350994	     42.11525990	      0.00000000	      0.00000000
      5.03500000	    -12.98207914	      1.55853785	     -2.32986783	      0.20915574	      1.04588123	     -0.30875937	      0.00000000	      0.50000000	      0.00000000	      0.25000000	     57.93563400	     -5.20867613	      1.60984866	     52.44182965	      0.91528259	     -6.37846093	     -3.87094615	      0.00000000	      0.00000000	     71.69604084	     -6.47794341	      5.51351329	    110.93097083	      1.93611068	     -5.80941250	     -3.23868201	      0.00000000	      0.00000000	    -68.85163397	     -3.00122357	     -0.79394769	     89.49239964	    -15.61786668	     30.21865579	     61.11427110	     30.12710884	      0.00000000	      0.00000000	     86.65381592	    -15.19097752	     25.68828632	     65.64701817	     42.17907760	      0.00000000	      0.00000000
      5.04000000	    -13.09817081	      1.98360868	     -1.87539229	      0.20975038	      1.04687830	     -0.30877282	      0.00000000	      0.50000000	      0.00000000	      0.25000000	     56.56770866	     -5.88752721	      1.67446664	     50.52783151	      0.88187702	     -7.89293502	     -3.10065616	      0.00000000	      0.00000000	     73.05402165	     -5.96624589	      5.34899631	    112.25685251	      1.95925168	     -5.01979184	     -3.39142447	      0.00000000	      0.00000000	    -68.91626567	     -3.07577259	     -1.39902775	     89.48571254	    -15.87437045	     30.19114292	     61.13966471	     30.15354010	      0.00000000	      0.00000000	     86.84973108	    -15.06155935	     25.80878911	     65.78140099	     42.21246718	      0.00000000	      0.00000000
      5.04500000	    -13.18715361	      2.22455365	     -1.35187337	      0.20997132	      1.04809948	     -0.30885093	      0.00000000	      0.50000000	      0.00000000	      0.25000000	     55.14053457	     -6.50874186	      1.44917912	     48.58575206	      0.84798134	     -9.64800930	     -2.67099119	      0.00000000	      0.00000000	     74.47475947	     -5.34138168	      5.50493755	    113.48887899	      1.98075460	     -4.33162779	     -3.41677280	      0.00000000	      0.00000000	    -69.01054111	     -3.03004226	     -1.93552857	     89.47050878	    -16.10767386	     30.20597199	     61.11368228	     30.18803299	      0.00000000	      0.00000000	     87.07489796	    -14.91965796	     26.00561795	     65.98045206	     42.26173639	      0.00000000	      0.00000000
      5.05000000	    -13.50272206	      2.59082966	     -0.94717694	      0.21008446	      1.04926973	     -0.30891779	      0.00000000	      0.50000000	      0.00000000	      0.25000000	     53.96436273	     -7.11266961	      1.42858759	     46.62100719	      0.81369008	    -11.25961596	     -1.98386837	      0.00000000	      0.00000000	     76.08547411	     -4.84887292	      5.33735175	    114.55375366	      1.99934017	     -3.64660450	     -3.62938865	      0.00000000	      0.00000000	    -68.86958204	     -3.14336952	     -2.54657736	     89.45214838	    -16.25482370	     30.19352745	     61.03742493	     30.19917500	      0.00000000	      0.00000000	     87.27303104	    -14.71980490	     26.10079261	     66.09750981	     42.28653086	      0.00000000	      0.00000000
      5.05500000	    -13.85518876	      2.95113284	     -0.55317914	      0.21002544	      1.05060838	     -0.30900928	      0.00000000	      0.50000000	      0.00000000	      0.25000000	     52.85113154	     -7.70597128	      1.33113034	     44.70331309	      0.78022000	    -12.93558043	     -1.39244341	      0.00000000	      0.00000000	     77.72887347	     -4.35263677	      5.14291556	    115.47512297	      2.01542110	     -3.04726523	     -3.88227567	      0.00000000	      0.00000000	    -68.69739361	     -3.26339483	     -3.15767222	     89.43950923	    -16.36867067	     30.17858367	     60.90496130	     30.19783350	      0.00000000	      0.00000000	     87.47701262	    -14.48232034	     26.16211853	     66.18111620	     42.30109406	      0.00000000	      0.00000000
